<?xml version="1.0" encoding="UTF-8" standalone="no"?>
<svg
   xmlns:dc="http://purl.org/dc/elements/1.1/"
   xmlns:cc="http://creativecommons.org/ns#"
   xmlns:rdf="http://www.w3.org/1999/02/22-rdf-syntax-ns#"
   xmlns:svg="http://www.w3.org/2000/svg"
   xmlns="http://www.w3.org/2000/svg"
   id="svg8"
   version="1.1"
   viewBox="0 0 58.208331 26.458333"
   height="100"
   width="220">
  <defs
     id="defs2" />
  <metadata
     id="metadata5">
    <rdf:RDF>
      <cc:Work
         rdf:about="">
        <dc:format>image/svg+xml</dc:format>
        <dc:type
           rdf:resource="http://purl.org/dc/dcmitype/StillImage" />
        <dc:title></dc:title>
      </cc:Work>
    </rdf:RDF>
  </metadata>
  <g
     style="display:inline"
     transform="translate(0,-270.54167)"
     id="layer1">
    <g
       id="g1299">
      <path
         id="path1139"
         style="font-style:normal;font-variant:normal;font-weight:normal;font-stretch:normal;font-size:medium;line-height:1.25;font-family:'Montserrat SemiBold';-inkscape-font-specification:'Montserrat SemiBold, ';letter-spacing:0px;word-spacing:0px;fill:#ffffff;fill-opacity:1;stroke:none;stroke-width:0.26458332"
         d="m 30.191992,285.48987 -1.312334,1.24178 v 1.98966 h -1.763889 v -10.47044 h 1.763889 v 6.32178 l 3.654778,-3.38667 h 2.116667 l -3.146778,3.16089 3.443111,4.37444 h -2.144889 z" />
      <path
         id="path1141"
         style="font-style:normal;font-variant:normal;font-weight:normal;font-stretch:normal;font-size:medium;line-height:1.25;font-family:'Montserrat SemiBold';-inkscape-font-specification:'Montserrat SemiBold, ';letter-spacing:0px;word-spacing:0px;fill:#ffffff;fill-opacity:1;stroke:none;stroke-width:0.26458332"
         d="m 40.619908,288.31209 q -0.310444,0.254 -0.762,0.381 -0.437444,0.127 -0.931333,0.127 -1.241778,0 -1.919111,-0.64911 -0.677334,-0.64911 -0.677334,-1.89089 v -3.62655 h -1.241777 v -1.41112 h 1.241777 v -1.72155 h 1.763889 v 1.72155 h 2.017889 v 1.41112 h -2.017889 v 3.58422 q 0,0.55033 0.268111,0.84666 0.268111,0.28223 0.776111,0.28223 0.592667,0 0.987778,-0.31045 z" />
      <path
         id="path815-6-1"
         transform="matrix(0.26458333,0,0,0.26458333,0,270.54167)"
         d="M 50 10 A 39.999999 39.999999 0 0 0 10 50 A 39.999999 39.999999 0 0 0 50 90 A 39.999999 39.999999 0 0 0 85.154297 69.066406 C 85.017554 69.068901 84.888297 69.085938 84.75 69.085938 C 81.621111 69.085938 78.866592 68.463197 76.484375 67.21875 C 74.102143 65.974303 72.253059 64.249369 70.9375 62.044922 C 69.657499 59.804909 69.017578 57.279572 69.017578 54.470703 C 69.017578 51.697361 69.638373 49.210307 70.882812 47.005859 C 72.16281 44.765885 73.906877 43.023744 76.111328 41.779297 C 78.351329 40.53485 80.874702 39.912109 83.683594 39.912109 C 85.533332 39.912109 87.260864 40.201228 88.871094 40.765625 A 39.999999 39.999999 0 0 1 89.925781 47.933594 C 90.703351 48.814828 91.256832 49.852937 91.576172 51.056641 L 89.931641 51.373047 A 39.999999 39.999999 0 0 1 89.521484 55.824219 L 98.083984 54.150391 C 98.083984 51.270391 97.444064 48.762261 96.164062 46.628906 C 94.884061 44.460062 93.141951 42.807711 90.9375 41.669922 C 90.27307 41.310489 89.582242 41.013007 88.871094 40.763672 A 39.999999 39.999999 0 0 0 50 10 z M 89.521484 55.824219 L 76.269531 58.416016 C 76.945092 60.051568 78.030108 61.297049 79.523438 62.150391 C 81.016778 63.003695 82.812375 63.429688 84.910156 63.429688 C 85.911954 63.429688 86.854389 63.310317 87.748047 63.09375 A 39.999999 39.999999 0 0 0 89.521484 55.824219 z M 87.748047 63.09375 A 39.999999 39.999999 0 0 1 85.154297 69.066406 C 87.442839 69.024831 89.51798 68.64826 91.363281 67.910156 C 93.318839 67.127907 94.919623 65.972254 96.164062 64.443359 L 92.644531 60.335938 C 91.25018 61.730243 89.613788 62.642172 87.748047 63.09375 z M 89.931641 51.373047 A 39.999999 39.999999 0 0 0 90 50 A 39.999999 39.999999 0 0 0 89.925781 47.933594 C 89.577876 47.539313 89.189631 47.173438 88.75 46.84375 C 87.36334 45.777054 85.674713 45.242188 83.683594 45.242188 C 81.230261 45.242188 79.239828 46.042591 77.710938 47.642578 C 76.217608 49.242603 75.470703 51.393492 75.470703 54.095703 L 75.470703 54.150391 L 89.931641 51.373047 z M 28.787109 28.787109 L 34.052734 34.052734 L 40.986328 40.986328 L 51.861328 51.861328 L 59.599609 59.599609 L 68.666016 68.666016 L 65.947266 68.666016 L 63.009766 68.666016 L 58.480469 68.666016 L 50.853516 57.732422 C 50.533516 57.767899 50.054062 57.787109 49.414062 57.787109 L 40.986328 57.787109 L 40.986328 68.666016 L 34.052734 68.666016 L 34.052734 39.708984 L 25.958984 31.615234 L 28.787109 28.787109 z M 36.990234 31.333984 L 49.414062 31.333984 C 52.649618 31.333984 55.457621 31.866921 57.839844 32.933594 C 60.257623 34.000267 62.106719 35.528417 63.386719 37.519531 C 64.666719 39.510626 65.306641 41.875494 65.306641 44.613281 C 65.306641 47.422164 64.61323 49.840513 63.226562 51.867188 C 62.477222 52.991203 61.535394 53.950998 60.414062 54.757812 L 55.880859 50.224609 C 55.909841 50.201734 55.944168 50.183465 55.972656 50.160156 C 57.5371 48.844599 58.320312 46.995491 58.320312 44.613281 C 58.320314 42.231051 57.5371 40.39914 55.972656 39.119141 C 54.408212 37.839141 52.115973 37.199219 49.09375 37.199219 L 42.855469 37.199219 L 36.990234 31.333984 z M 40.986328 46.642578 L 40.986328 52.080078 L 46.423828 52.080078 L 40.986328 46.642578 z "
         style="fill:#ffffff;fill-opacity:1;stroke-width:2.40000033;stroke-miterlimit:10;stroke-dasharray:none" />
      <g
         id="g1265">
        <g
           transform="matrix(0.79999998,0,0,0.79999959,2.3623512,56.404664)"
           id="g873">
          <g
             aria-label="R"
             style="font-style:normal;font-weight:normal;font-size:17.63889313px;line-height:1.25;font-family:sans-serif;letter-spacing:0px;word-spacing:0px;fill:#ffffff;fill-opacity:1;stroke:none;stroke-width:0.33072925"
             id="text1044" />
        </g>
      </g>
      <g
         id="text1276"
         style="font-style:normal;font-weight:normal;font-size:2.82222223px;line-height:1;font-family:sans-serif;letter-spacing:0px;word-spacing:0px;fill:#ffffff;fill-opacity:1;stroke:none;stroke-width:0.26458332"
         aria-label="Reinhart Previano Koentjoro">
        <path
           id="path1320"
           style="font-style:normal;font-variant:normal;font-weight:bold;font-stretch:normal;font-family:Montserrat;-inkscape-font-specification:'Montserrat Bold';fill:#ffffff;fill-opacity:1;stroke-width:0.26458332"
           d="m 42.527353,283.02518 -0.381,-0.55034 h -0.02258 -0.397933 v 0.55034 h -0.4572 v -1.97556 h 0.855133 q 0.262467,0 0.454378,0.0875 0.194733,0.0875 0.299155,0.24836 0.104422,0.16086 0.104422,0.381 0,0.22013 -0.107244,0.381 -0.104422,0.15804 -0.299156,0.24271 l 0.443089,0.635 z m -0.0085,-1.25871 q 0,-0.16652 -0.107244,-0.254 -0.107245,-0.0903 -0.313267,-0.0903 h -0.372533 v 0.68863 h 0.372533 q 0.206022,0 0.313267,-0.0903 0.107244,-0.0903 0.107244,-0.254 z" />
        <path
           id="path1322"
           style="font-style:normal;font-variant:normal;font-weight:bold;font-stretch:normal;font-family:Montserrat;-inkscape-font-specification:'Montserrat Bold';fill:#ffffff;fill-opacity:1;stroke-width:0.26458332"
           d="m 44.7992,282.27164 q 0,0.008 -0.0085,0.11854 h -1.148645 q 0.03104,0.14111 0.146756,0.22295 0.115711,0.0818 0.287866,0.0818 0.118534,0 0.208845,-0.0339 0.09313,-0.0367 0.172155,-0.11289 l 0.234245,0.254 q -0.214489,0.24553 -0.626534,0.24553 -0.256822,0 -0.454377,-0.0988 -0.197556,-0.1016 -0.3048,-0.2794 Q 43.199,282.49178 43.199,282.266 q 0,-0.22296 0.104422,-0.40076 0.107245,-0.18062 0.290689,-0.2794 0.186267,-0.1016 0.414867,-0.1016 0.222956,0 0.403578,0.096 0.180622,0.096 0.282222,0.27658 0.104422,0.1778 0.104422,0.41486 z m -0.7874,-0.45437 q -0.149578,0 -0.251178,0.0847 -0.1016,0.0847 -0.124177,0.23142 h 0.747889 q -0.02258,-0.14393 -0.124178,-0.2286 -0.1016,-0.0875 -0.248356,-0.0875 z" />
        <path
           id="path1324"
           style="font-style:normal;font-variant:normal;font-weight:bold;font-stretch:normal;font-family:Montserrat;-inkscape-font-specification:'Montserrat Bold';fill:#ffffff;fill-opacity:1;stroke-width:0.26458332"
           d="m 45.092745,281.50682 h 0.440267 v 1.51836 h -0.440267 z m 0.220133,-0.21167 q -0.121355,0 -0.197555,-0.0705 -0.0762,-0.0706 -0.0762,-0.17498 0,-0.10442 0.0762,-0.17498 0.0762,-0.0706 0.197555,-0.0706 0.121356,0 0.197556,0.0677 0.0762,0.0677 0.0762,0.16933 0,0.11007 -0.0762,0.18345 -0.0762,0.0705 -0.197556,0.0705 z" />
        <path
           id="path1326"
           style="font-style:normal;font-variant:normal;font-weight:bold;font-stretch:normal;font-family:Montserrat;-inkscape-font-specification:'Montserrat Bold';fill:#ffffff;fill-opacity:1;stroke-width:0.26458332"
           d="m 46.865086,281.48424 q 0.282222,0 0.454378,0.16934 0.174978,0.16933 0.174978,0.50235 v 0.86925 h -0.440267 v -0.80151 q 0,-0.18063 -0.07902,-0.26812 -0.07902,-0.0903 -0.2286,-0.0903 -0.166511,0 -0.265289,0.10443 -0.09878,0.1016 -0.09878,0.3048 v 0.75071 h -0.440267 v -1.51836 h 0.420512 v 0.1778 q 0.08749,-0.096 0.217311,-0.14675 0.129822,-0.0536 0.285044,-0.0536 z" />
        <path
           id="path1328"
           style="font-style:normal;font-variant:normal;font-weight:bold;font-stretch:normal;font-family:Montserrat;-inkscape-font-specification:'Montserrat Bold';fill:#ffffff;fill-opacity:1;stroke-width:0.26458332"
           d="m 48.815269,281.48424 q 0.282222,0 0.454377,0.16934 0.174978,0.16933 0.174978,0.50235 v 0.86925 h -0.440267 v -0.80151 q 0,-0.18063 -0.07902,-0.26812 -0.07902,-0.0903 -0.2286,-0.0903 -0.166511,0 -0.265289,0.10443 -0.09878,0.1016 -0.09878,0.3048 v 0.75071 h -0.440267 v -2.09409 h 0.440267 v 0.73378 q 0.08749,-0.0875 0.211666,-0.13265 0.124178,-0.048 0.270934,-0.048 z" />
        <path
           id="path1330"
           style="font-style:normal;font-variant:normal;font-weight:bold;font-stretch:normal;font-family:Montserrat;-inkscape-font-specification:'Montserrat Bold';fill:#ffffff;fill-opacity:1;stroke-width:0.26458332"
           d="m 50.455006,281.48424 q 0.352778,0 0.541867,0.16934 0.189089,0.16651 0.189089,0.50517 v 0.86643 h -0.412044 v -0.18909 q -0.124178,0.21166 -0.462845,0.21166 -0.174978,0 -0.3048,-0.0593 -0.127,-0.0593 -0.194733,-0.16369 -0.06773,-0.10442 -0.06773,-0.23707 0,-0.21166 0.158045,-0.33302 0.160867,-0.12136 0.493889,-0.12136 h 0.349955 q 0,-0.14393 -0.08749,-0.22013 -0.08749,-0.079 -0.262466,-0.079 -0.121356,0 -0.239889,0.0395 -0.115711,0.0367 -0.197556,0.1016 l -0.158044,-0.30762 q 0.124178,-0.0875 0.296333,-0.13547 0.174978,-0.048 0.358422,-0.048 z m -0.03387,1.26718 q 0.112889,0 0.200378,-0.0508 0.08749,-0.0536 0.124177,-0.15522 v -0.15522 h -0.301977 q -0.270934,0 -0.270934,0.1778 0,0.0847 0.06491,0.13546 0.06773,0.048 0.183445,0.048 z" />
        <path
           id="path1332"
           style="font-style:normal;font-variant:normal;font-weight:bold;font-stretch:normal;font-family:Montserrat;-inkscape-font-specification:'Montserrat Bold';fill:#ffffff;fill-opacity:1;stroke-width:0.26458332"
           d="m 52.004419,281.7072 q 0.07902,-0.11007 0.211667,-0.16651 0.135466,-0.0564 0.310444,-0.0564 v 0.4064 q -0.07338,-0.006 -0.09878,-0.006 -0.189089,0 -0.296333,0.10724 -0.107245,0.10443 -0.107245,0.31609 v 0.71685 h -0.440266 v -1.51836 h 0.420511 z" />
        <path
           id="path1334"
           style="font-style:normal;font-variant:normal;font-weight:bold;font-stretch:normal;font-family:Montserrat;-inkscape-font-specification:'Montserrat Bold';fill:#ffffff;fill-opacity:1;stroke-width:0.26458332"
           d="m 53.821928,282.9518 q -0.06491,0.048 -0.160867,0.0734 -0.09313,0.0226 -0.197555,0.0226 -0.270934,0 -0.420512,-0.13828 -0.146755,-0.13829 -0.146755,-0.4064 v -0.62372 h -0.234245 v -0.33866 h 0.234245 v -0.36971 h 0.440267 v 0.36971 h 0.378177 v 0.33866 h -0.378177 v 0.61807 q 0,0.096 0.04798,0.14958 0.0508,0.0508 0.141111,0.0508 0.104423,0 0.1778,-0.0564 z" />
        <path
           id="path1336"
           style="font-style:normal;font-variant:normal;font-weight:bold;font-stretch:normal;font-family:Montserrat;-inkscape-font-specification:'Montserrat Bold';fill:#ffffff;fill-opacity:1;stroke-width:0.26458332"
           d="m 42.123775,283.89786 q 0.262467,0 0.454378,0.0875 0.194733,0.0875 0.299155,0.24835 0.104422,0.16087 0.104422,0.381 0,0.21732 -0.104422,0.381 -0.104422,0.16087 -0.299155,0.24836 -0.191911,0.0847 -0.454378,0.0847 h -0.397933 v 0.54469 h -0.4572 v -1.97556 z m -0.0254,1.05833 q 0.206022,0 0.313267,-0.0875 0.107244,-0.0903 0.107244,-0.254 0,-0.16651 -0.107244,-0.254 -0.107245,-0.0903 -0.313267,-0.0903 h -0.372533 v 0.6858 z" />
        <path
           id="path1338"
           style="font-style:normal;font-variant:normal;font-weight:bold;font-stretch:normal;font-family:Montserrat;-inkscape-font-specification:'Montserrat Bold';fill:#ffffff;fill-opacity:1;stroke-width:0.26458332"
           d="m 43.695737,284.55544 q 0.07902,-0.11007 0.211667,-0.16651 0.135466,-0.0565 0.310444,-0.0565 v 0.4064 q -0.07338,-0.006 -0.09878,-0.006 -0.189089,0 -0.296333,0.10724 -0.107245,0.10442 -0.107245,0.31609 v 0.71685 h -0.440266 v -1.51836 h 0.420511 z" />
        <path
           id="path1340"
           style="font-style:normal;font-variant:normal;font-weight:bold;font-stretch:normal;font-family:Montserrat;-inkscape-font-specification:'Montserrat Bold';fill:#ffffff;fill-opacity:1;stroke-width:0.26458332"
           d="m 45.953512,285.11988 q 0,0.008 -0.0085,0.11854 h -1.148644 q 0.03104,0.14111 0.146755,0.22295 0.115711,0.0819 0.287867,0.0819 0.118533,0 0.208844,-0.0339 0.09313,-0.0367 0.172156,-0.11289 l 0.234244,0.254 q -0.214488,0.24553 -0.626533,0.24553 -0.256822,0 -0.454378,-0.0988 -0.197555,-0.1016 -0.3048,-0.2794 -0.107244,-0.1778 -0.107244,-0.40358 0,-0.22296 0.104422,-0.40076 0.107245,-0.18062 0.290689,-0.2794 0.186267,-0.1016 0.414867,-0.1016 0.222955,0 0.403577,0.096 0.180623,0.0959 0.282223,0.27658 0.104422,0.1778 0.104422,0.41486 z m -0.7874,-0.45438 q -0.149578,0 -0.251178,0.0847 -0.1016,0.0847 -0.124178,0.23142 h 0.747889 q -0.02258,-0.14393 -0.124178,-0.2286 -0.1016,-0.0875 -0.248355,-0.0875 z" />
        <path
           id="path1342"
           style="font-style:normal;font-variant:normal;font-weight:bold;font-stretch:normal;font-family:Montserrat;-inkscape-font-specification:'Montserrat Bold';fill:#ffffff;fill-opacity:1;stroke-width:0.26458332"
           d="m 47.7259,284.35506 -0.640644,1.51836 h -0.454378 l -0.637822,-1.51836 h 0.454378 l 0.420511,1.03293 0.434622,-1.03293 z" />
        <path
           id="path1344"
           style="font-style:normal;font-variant:normal;font-weight:bold;font-stretch:normal;font-family:Montserrat;-inkscape-font-specification:'Montserrat Bold';fill:#ffffff;fill-opacity:1;stroke-width:0.26458332"
           d="m 47.9065,284.35506 h 0.440267 v 1.51836 H 47.9065 Z m 0.220133,-0.21167 q -0.121355,0 -0.197555,-0.0706 -0.0762,-0.0706 -0.0762,-0.17498 0,-0.10442 0.0762,-0.17498 0.0762,-0.0705 0.197555,-0.0705 0.121356,0 0.197556,0.0677 0.0762,0.0677 0.0762,0.16933 0,0.11007 -0.0762,0.18345 -0.0762,0.0706 -0.197556,0.0706 z" />
        <path
           id="path1346"
           style="font-style:normal;font-variant:normal;font-weight:bold;font-stretch:normal;font-family:Montserrat;-inkscape-font-specification:'Montserrat Bold';fill:#ffffff;fill-opacity:1;stroke-width:0.26458332"
           d="m 49.368397,284.33248 q 0.352777,0 0.541866,0.16934 0.189089,0.16651 0.189089,0.50517 v 0.86643 h -0.412044 v -0.18909 q -0.124178,0.21166 -0.462845,0.21166 -0.174977,0 -0.3048,-0.0593 -0.127,-0.0593 -0.194733,-0.16369 -0.06773,-0.10442 -0.06773,-0.23707 0,-0.21167 0.158044,-0.33302 0.160867,-0.12136 0.493889,-0.12136 h 0.349956 q 0,-0.14393 -0.08749,-0.22013 -0.08749,-0.079 -0.262467,-0.079 -0.121356,0 -0.239889,0.0395 -0.115711,0.0367 -0.197555,0.1016 l -0.158045,-0.30762 q 0.124178,-0.0875 0.296333,-0.13547 0.174978,-0.048 0.358423,-0.048 z m -0.03387,1.26718 q 0.112889,0 0.200378,-0.0508 0.08749,-0.0536 0.124178,-0.15522 v -0.15522 h -0.301978 q -0.270934,0 -0.270934,0.1778 0,0.0847 0.06491,0.13546 0.06773,0.048 0.183444,0.048 z" />
        <path
           id="path1348"
           style="font-style:normal;font-variant:normal;font-weight:bold;font-stretch:normal;font-family:Montserrat;-inkscape-font-specification:'Montserrat Bold';fill:#ffffff;fill-opacity:1;stroke-width:0.26458332"
           d="m 51.420165,284.33248 q 0.282222,0 0.454377,0.16934 0.174978,0.16933 0.174978,0.50235 v 0.86925 h -0.440267 v -0.80152 q 0,-0.18062 -0.07902,-0.26811 -0.07902,-0.0903 -0.2286,-0.0903 -0.166511,0 -0.265289,0.10442 -0.09878,0.1016 -0.09878,0.3048 v 0.75072 h -0.440267 v -1.51836 h 0.420511 v 0.1778 q 0.08749,-0.096 0.217311,-0.14676 0.129822,-0.0536 0.285045,-0.0536 z" />
        <path
           id="path1350"
           style="font-style:normal;font-variant:normal;font-weight:bold;font-stretch:normal;font-family:Montserrat;-inkscape-font-specification:'Montserrat Bold';fill:#ffffff;fill-opacity:1;stroke-width:0.26458332"
           d="m 53.186904,285.89599 q -0.239889,0 -0.4318,-0.0988 -0.189089,-0.1016 -0.296333,-0.2794 -0.107245,-0.1778 -0.107245,-0.40358 0,-0.22578 0.107245,-0.40358 0.107244,-0.1778 0.296333,-0.27658 0.191911,-0.1016 0.4318,-0.1016 0.239889,0 0.428978,0.1016 0.189089,0.0988 0.296333,0.27658 0.107245,0.1778 0.107245,0.40358 0,0.22578 -0.107245,0.40358 -0.107244,0.1778 -0.296333,0.2794 -0.189089,0.0988 -0.428978,0.0988 z m 0,-0.36124 q 0.169333,0 0.276578,-0.11289 0.110067,-0.11571 0.110067,-0.30762 0,-0.19191 -0.110067,-0.3048 -0.107245,-0.11571 -0.276578,-0.11571 -0.169333,0 -0.2794,0.11571 -0.110067,0.11289 -0.110067,0.3048 0,0.19191 0.110067,0.30762 0.110067,0.11289 0.2794,0.11289 z" />
        <path
           id="path1352"
           style="font-style:normal;font-variant:normal;font-weight:bold;font-stretch:normal;font-family:Montserrat;-inkscape-font-specification:'Montserrat Bold';fill:#ffffff;fill-opacity:1;stroke-width:0.26458332"
           d="m 41.988308,287.94554 -0.265289,0.27658 v 0.49953 h -0.454377 v -1.97555 h 0.454377 v 0.92286 l 0.874889,-0.92286 h 0.508 l -0.818444,0.88053 0.866422,1.09502 h -0.5334 z" />
        <path
           id="path1354"
           style="font-style:normal;font-variant:normal;font-weight:bold;font-stretch:normal;font-family:Montserrat;-inkscape-font-specification:'Montserrat Bold';fill:#ffffff;fill-opacity:1;stroke-width:0.26458332"
           d="m 43.986416,288.74423 q -0.239889,0 -0.4318,-0.0988 -0.189089,-0.1016 -0.296334,-0.2794 -0.107244,-0.1778 -0.107244,-0.40357 0,-0.22578 0.107244,-0.40358 0.107245,-0.1778 0.296334,-0.27658 0.191911,-0.1016 0.4318,-0.1016 0.239889,0 0.428978,0.1016 0.189088,0.0988 0.296333,0.27658 0.107244,0.1778 0.107244,0.40358 0,0.22577 -0.107244,0.40357 -0.107245,0.1778 -0.296333,0.2794 -0.189089,0.0988 -0.428978,0.0988 z m 0,-0.36124 q 0.169333,0 0.276578,-0.11289 0.110066,-0.11571 0.110066,-0.30762 0,-0.19192 -0.110066,-0.3048 -0.107245,-0.11572 -0.276578,-0.11572 -0.169334,0 -0.2794,0.11572 -0.110067,0.11288 -0.110067,0.3048 0,0.19191 0.110067,0.30762 0.110066,0.11289 0.2794,0.11289 z" />
        <path
           id="path1356"
           style="font-style:normal;font-variant:normal;font-weight:bold;font-stretch:normal;font-family:Montserrat;-inkscape-font-specification:'Montserrat Bold';fill:#ffffff;fill-opacity:1;stroke-width:0.26458332"
           d="m 46.59979,287.96812 q 0,0.008 -0.0085,0.11853 h -1.148644 q 0.03104,0.14111 0.146755,0.22296 0.115712,0.0818 0.287867,0.0818 0.118533,0 0.208845,-0.0339 0.09313,-0.0367 0.172155,-0.11289 l 0.234245,0.254 q -0.214489,0.24553 -0.626534,0.24553 -0.256822,0 -0.454378,-0.0988 -0.197555,-0.1016 -0.3048,-0.2794 -0.107244,-0.1778 -0.107244,-0.40357 0,-0.22296 0.104422,-0.40076 0.107245,-0.18062 0.290689,-0.2794 0.186267,-0.1016 0.414867,-0.1016 0.222955,0 0.403578,0.096 0.180622,0.096 0.282222,0.27657 0.104422,0.1778 0.104422,0.41487 z m -0.7874,-0.45438 q -0.149578,0 -0.251178,0.0847 -0.1016,0.0847 -0.124178,0.23142 h 0.747889 q -0.02258,-0.14393 -0.124177,-0.2286 -0.1016,-0.0875 -0.248356,-0.0875 z" />
        <path
           id="path1358"
           style="font-style:normal;font-variant:normal;font-weight:bold;font-stretch:normal;font-family:Montserrat;-inkscape-font-specification:'Montserrat Bold';fill:#ffffff;fill-opacity:1;stroke-width:0.26458332"
           d="m 47.816202,287.18072 q 0.282222,0 0.454377,0.16933 0.174978,0.16934 0.174978,0.50236 v 0.86924 h -0.440266 v -0.80151 q 0,-0.18062 -0.07902,-0.26811 -0.07902,-0.0903 -0.2286,-0.0903 -0.166511,0 -0.265289,0.10442 -0.09878,0.1016 -0.09878,0.3048 v 0.75071 h -0.440267 v -1.51835 h 0.420511 v 0.1778 q 0.08749,-0.096 0.217311,-0.14676 0.129822,-0.0536 0.285045,-0.0536 z" />
        <path
           id="path1360"
           style="font-style:normal;font-variant:normal;font-weight:bold;font-stretch:normal;font-family:Montserrat;-inkscape-font-specification:'Montserrat Bold';fill:#ffffff;fill-opacity:1;stroke-width:0.26458332"
           d="m 49.822829,288.64828 q -0.06491,0.048 -0.160867,0.0734 -0.09313,0.0226 -0.197556,0.0226 -0.270933,0 -0.420511,-0.13829 -0.146755,-0.13829 -0.146755,-0.4064 v -0.62371 h -0.234245 v -0.33867 h 0.234245 v -0.36971 h 0.440266 v 0.36971 h 0.378178 v 0.33867 h -0.378178 v 0.61807 q 0,0.096 0.04798,0.14958 0.0508,0.0508 0.141111,0.0508 0.104422,0 0.1778,-0.0564 z" />
        <path
           id="path1362"
           style="font-style:normal;font-variant:normal;font-weight:bold;font-stretch:normal;font-family:Montserrat;-inkscape-font-specification:'Montserrat Bold';fill:#ffffff;fill-opacity:1;stroke-width:0.26458332"
           d="m 49.958288,289.29174 q -0.231422,0 -0.352778,-0.0847 l 0.118534,-0.31892 q 0.0762,0.0536 0.186266,0.0536 0.08467,0 0.132645,-0.0565 0.04798,-0.0536 0.04798,-0.16369 v -1.51835 h 0.440266 v 1.51553 q 0,0.26529 -0.1524,0.41769 -0.149577,0.15522 -0.420511,0.15522 z m 0.352778,-2.30011 q -0.121356,0 -0.197556,-0.0705 -0.0762,-0.0706 -0.0762,-0.17498 0,-0.10442 0.0762,-0.17498 0.0762,-0.0706 0.197556,-0.0706 0.121356,0 0.197556,0.0677 0.0762,0.0677 0.0762,0.16933 0,0.11007 -0.0762,0.18345 -0.0762,0.0705 -0.197556,0.0705 z" />
        <path
           id="path1364"
           style="font-style:normal;font-variant:normal;font-weight:bold;font-stretch:normal;font-family:Montserrat;-inkscape-font-specification:'Montserrat Bold';fill:#ffffff;fill-opacity:1;stroke-width:0.26458332"
           d="m 51.660108,288.74423 q -0.239889,0 -0.4318,-0.0988 -0.189089,-0.1016 -0.296334,-0.2794 -0.107244,-0.1778 -0.107244,-0.40357 0,-0.22578 0.107244,-0.40358 0.107245,-0.1778 0.296334,-0.27658 0.191911,-0.1016 0.4318,-0.1016 0.239889,0 0.428978,0.1016 0.189088,0.0988 0.296333,0.27658 0.107244,0.1778 0.107244,0.40358 0,0.22577 -0.107244,0.40357 -0.107245,0.1778 -0.296333,0.2794 -0.189089,0.0988 -0.428978,0.0988 z m 0,-0.36124 q 0.169333,0 0.276578,-0.11289 0.110066,-0.11571 0.110066,-0.30762 0,-0.19192 -0.110066,-0.3048 -0.107245,-0.11572 -0.276578,-0.11572 -0.169334,0 -0.2794,0.11572 -0.110067,0.11288 -0.110067,0.3048 0,0.19191 0.110067,0.30762 0.110066,0.11289 0.2794,0.11289 z" />
        <path
           id="path1366"
           style="font-style:normal;font-variant:normal;font-weight:bold;font-stretch:normal;font-family:Montserrat;-inkscape-font-specification:'Montserrat Bold';fill:#ffffff;fill-opacity:1;stroke-width:0.26458332"
           d="m 53.206682,287.40368 q 0.07902,-0.11007 0.211666,-0.16652 0.135467,-0.0564 0.310445,-0.0564 v 0.4064 q -0.07338,-0.006 -0.09878,-0.006 -0.189089,0 -0.296333,0.10724 -0.107245,0.10442 -0.107245,0.31609 v 0.71684 h -0.440266 v -1.51835 h 0.420511 z" />
        <path
           id="path1368"
           style="font-style:normal;font-variant:normal;font-weight:bold;font-stretch:normal;font-family:Montserrat;-inkscape-font-specification:'Montserrat Bold';fill:#ffffff;fill-opacity:1;stroke-width:0.26458332"
           d="m 54.699635,288.74423 q -0.239889,0 -0.4318,-0.0988 -0.189089,-0.1016 -0.296334,-0.2794 -0.107244,-0.1778 -0.107244,-0.40357 0,-0.22578 0.107244,-0.40358 0.107245,-0.1778 0.296334,-0.27658 0.191911,-0.1016 0.4318,-0.1016 0.239889,0 0.428977,0.1016 0.189089,0.0988 0.296334,0.27658 0.107244,0.1778 0.107244,0.40358 0,0.22577 -0.107244,0.40357 -0.107245,0.1778 -0.296334,0.2794 -0.189088,0.0988 -0.428977,0.0988 z m 0,-0.36124 q 0.169333,0 0.276577,-0.11289 0.110067,-0.11571 0.110067,-0.30762 0,-0.19192 -0.110067,-0.3048 -0.107244,-0.11572 -0.276577,-0.11572 -0.169334,0 -0.2794,0.11572 -0.110067,0.11288 -0.110067,0.3048 0,0.19191 0.110067,0.30762 0.110066,0.11289 0.2794,0.11289 z" />
      </g>
    </g>
  </g>
</svg>
